  0
SECTION
  2
HEADER
  9
$ACADVER
  1
AC1014
  9
$HANDSEED
  5
FFFF
  9
$MEASUREMENT
 70
     1
  0
ENDSEC
  0
SECTION
  2
TABLES
  0
TABLE
  2
VPORT
  5
8
330
0
100
AcDbSymbolTable
 70
     4
  0
VPORT
  5
2E
330
8
100
AcDbSymbolTableRecord
100
AcDbViewportTableRecord
  2
*ACTIVE
 70
     0
 10
0.0
 20
0.0
 11
1.0
 21
1.0
 12
210.0
 22
148.5
 13
0.0
 23
0.0
 14
10.0
 24
10.0
 15
10.0
 25
10.0
 16
0.0
 26
0.0
 36
1.0
 17
0.0
 27
0.0
 37
0.0
 40
341.0
 41
1.24
 42
50.0
 43
0.0
 44
0.0
 50
0.0
 51
0.0
 71
     0
 72
   100
 73
     1
 74
     3
 75
     0
 76
     0
 77
     0
 78
     0
  0
ENDTAB
  0
TABLE
  2
LTYPE
  5
5
330
0
100
AcDbSymbolTable
 70
     1
  0
LTYPE
  5
14
330
5
100
AcDbSymbolTableRecord
100
AcDbLinetypeTableRecord
  2
BYBLOCK
 70
     0
  3

 72
    65
 73
     0
 40
0.0
  0
LTYPE
  5
15
330
5
100
AcDbSymbolTableRecord
100
AcDbLinetypeTableRecord
  2
BYLAYER
 70
     0
  3

 72
    65
 73
     0
 40
0.0
  0
LTYPE
  5
16
330
5
100
AcDbSymbolTableRecord
100
AcDbLinetypeTableRecord
  2
CONTINUOUS
 70
     0
  3
Solid line
 72
    65
 73
     0
 40
0.0
  0
ENDTAB
  0
TABLE
  2
LAYER
  5
2
100
AcDbSymbolTable
 70
1
  0
LAYER
  5
50
100
AcDbSymbolTableRecord
100
AcDbLayerTableRecord
  2
0
 70
0
  6
CONTINUOUS
  0
ENDTAB
  0
TABLE
  2
STYLE
  5
3
330
0
100
AcDbSymbolTable
 70
     1
  0
STYLE
  5
11
330
3
100
AcDbSymbolTableRecord
100
AcDbTextStyleTableRecord
  2
STANDARD
 70
     0
 40
0.0
 41
1.0
 50
0.0
 71
     0
 42
2.5
  3
txt
  4

  0
ENDTAB
  0
TABLE
  2
VIEW
  5
6
330
0
100
AcDbSymbolTable
 70
     0
  0
ENDTAB
  0
TABLE
  2
UCS
  5
7
330
0
100
AcDbSymbolTable
 70
     0
  0
ENDTAB
  0
TABLE
  2
APPID
  5
9
330
0
100
AcDbSymbolTable
 70
     2
  0
APPID
  5
12
330
9
100
AcDbSymbolTableRecord
100
AcDbRegAppTableRecord
  2
ACAD
 70
     0
  0
ENDTAB
  0
TABLE
  2
DIMSTYLE
  5
A
330
0
100
AcDbSymbolTable
 70
     1
  0
DIMSTYLE
105
27
330
A
100
AcDbSymbolTableRecord
100
AcDbDimStyleTableRecord
  2
ISO-25
 70
     0
  3

  4

  5

  6

  7

 40
1.0
 41
2.5
 42
0.625
 43
3.75
 44
1.25
 45
0.0
 46
0.0
 47
0.0
 48
0.0
140
2.5
141
2.5
142
0.0
143
0.03937007874016
144
1.0
145
0.0
146
1.0
147
0.625
 71
     0
 72
     0
 73
     0
 74
     0
 75
     0
 76
     0
 77
     1
 78
     8
170
     0
171
     3
172
     1
173
     0
174
     0
175
     0
176
     0
177
     0
178
     0
270
     2
271
     2
272
     2
273
     2
274
     3
340
11
275
     0
280
     0
281
     0
282
     0
283
     0
284
     8
285
     0
286
     0
287
     3
288
     0
  0
ENDTAB
  0
TABLE
  2
BLOCK_RECORD
  5
1
330
0
100
AcDbSymbolTable
 70
     1
  0
BLOCK_RECORD
  5
1F
330
1
100
AcDbSymbolTableRecord
100
AcDbBlockTableRecord
  2
*MODEL_SPACE
  0
BLOCK_RECORD
  5
1B
330
1
100
AcDbSymbolTableRecord
100
AcDbBlockTableRecord
  2
*PAPER_SPACE
  0
ENDTAB
  0
ENDSEC
  0
SECTION
  2
BLOCKS
  0
BLOCK
  5
20
330
1F
100
AcDbEntity
  8
0
100
AcDbBlockBegin
  2
*MODEL_SPACE
 70
     0
 10
0.0
 20
0.0
 30
0.0
  3
*MODEL_SPACE
  1

  0
ENDBLK
  5
21
330
1F
100
AcDbEntity
  8
0
100
AcDbBlockEnd
  0
BLOCK
  5
1C
330
1B
100
AcDbEntity
 67
     1
  8
0
100
AcDbBlockBegin
  2
*PAPER_SPACE
  1

  0
ENDBLK
  5
1D
330
1B
100
AcDbEntity
 67
     1
  8
0
100
AcDbBlockEnd
  0
ENDSEC
  0
SECTION
  2
ENTITIES
  0
SPLINE
  5
100
100
AcDbEntity
  8
0
 62
1
100
AcDbSpline
 70
8
 71
3
 72
8
 73
4
 74
0
 40
0
 40
0
 40
0
 40
0
 40
1
 40
1
 40
1
 40
1
 10
70.414343
 20
763.758086
 30
0.0
 10
70.415949
 20
765.683326
 30
0.0
 10
69.389768
 20
767.463010
 30
0.0
 10
67.722728
 20
768.426094
 30
0.0
  0
SPLINE
  5
101
100
AcDbEntity
  8
0
 62
1
100
AcDbSpline
 70
8
 71
3
 72
8
 73
4
 74
0
 40
0
 40
0
 40
0
 40
0
 40
1
 40
1
 40
1
 40
1
 10
67.722728
 20
768.426094
 30
0.0
 10
66.055688
 20
769.389178
 30
0.0
 10
64.001347
 20
769.389178
 30
0.0
 10
62.334307
 20
768.426094
 30
0.0
  0
SPLINE
  5
102
100
AcDbEntity
  8
0
 62
1
100
AcDbSpline
 70
8
 71
3
 72
8
 73
4
 74
0
 40
0
 40
0
 40
0
 40
0
 40
1
 40
1
 40
1
 40
1
 10
62.334307
 20
768.426094
 30
0.0
 10
60.667267
 20
767.463010
 30
0.0
 10
59.641086
 20
765.683326
 30
0.0
 10
59.642693
 20
763.758086
 30
0.0
  0
SPLINE
  5
103
100
AcDbEntity
  8
0
 62
1
100
AcDbSpline
 70
8
 71
3
 72
8
 73
4
 74
0
 40
0
 40
0
 40
0
 40
0
 40
1
 40
1
 40
1
 40
1
 10
59.642693
 20
763.758086
 30
0.0
 10
59.641086
 20
761.832846
 30
0.0
 10
60.667267
 20
760.053163
 30
0.0
 10
62.334307
 20
759.090078
 30
0.0
  0
SPLINE
  5
104
100
AcDbEntity
  8
0
 62
1
100
AcDbSpline
 70
8
 71
3
 72
8
 73
4
 74
0
 40
0
 40
0
 40
0
 40
0
 40
1
 40
1
 40
1
 40
1
 10
62.334307
 20
759.090078
 30
0.0
 10
64.001347
 20
758.126994
 30
0.0
 10
66.055688
 20
758.126994
 30
0.0
 10
67.722728
 20
759.090078
 30
0.0
  0
SPLINE
  5
105
100
AcDbEntity
  8
0
 62
1
100
AcDbSpline
 70
8
 71
3
 72
8
 73
4
 74
0
 40
0
 40
0
 40
0
 40
0
 40
1
 40
1
 40
1
 40
1
 10
67.722728
 20
759.090078
 30
0.0
 10
69.389768
 20
760.053163
 30
0.0
 10
70.415949
 20
761.832846
 30
0.0
 10
70.414343
 20
763.758086
 30
0.0
  0
SPLINE
  5
106
100
AcDbEntity
  8
0
 62
1
100
AcDbSpline
 70
8
 71
3
 72
8
 73
4
 74
0
 40
0
 40
0
 40
0
 40
0
 40
1
 40
1
 40
1
 40
1
 10
494.760803
 20
707.065211
 30
0.0
 10
494.760803
 20
708.685566
 30
0.0
 10
493.896354
 20
710.182835
 30
0.0
 10
492.493086
 20
710.993012
 30
0.0
  0
SPLINE
  5
107
100
AcDbEntity
  8
0
 62
1
100
AcDbSpline
 70
8
 71
3
 72
8
 73
4
 74
0
 40
0
 40
0
 40
0
 40
0
 40
1
 40
1
 40
1
 40
1
 10
492.493086
 20
710.993012
 30
0.0
 10
491.089818
 20
711.803189
 30
0.0
 10
489.360920
 20
711.803189
 30
0.0
 10
487.957652
 20
710.993012
 30
0.0
  0
SPLINE
  5
108
100
AcDbEntity
  8
0
 62
1
100
AcDbSpline
 70
8
 71
3
 72
8
 73
4
 74
0
 40
0
 40
0
 40
0
 40
0
 40
1
 40
1
 40
1
 40
1
 10
487.957652
 20
710.993012
 30
0.0
 10
486.554384
 20
710.182835
 30
0.0
 10
485.689935
 20
708.685566
 30
0.0
 10
485.689935
 20
707.065211
 30
0.0
  0
SPLINE
  5
109
100
AcDbEntity
  8
0
 62
1
100
AcDbSpline
 70
8
 71
3
 72
8
 73
4
 74
0
 40
0
 40
0
 40
0
 40
0
 40
1
 40
1
 40
1
 40
1
 10
485.689935
 20
707.065211
 30
0.0
 10
485.689935
 20
705.444857
 30
0.0
 10
486.554384
 20
703.947587
 30
0.0
 10
487.957652
 20
703.137410
 30
0.0
  0
SPLINE
  5
10a
100
AcDbEntity
  8
0
 62
1
100
AcDbSpline
 70
8
 71
3
 72
8
 73
4
 74
0
 40
0
 40
0
 40
0
 40
0
 40
1
 40
1
 40
1
 40
1
 10
487.957652
 20
703.137410
 30
0.0
 10
489.360920
 20
702.327233
 30
0.0
 10
491.089818
 20
702.327233
 30
0.0
 10
492.493086
 20
703.137410
 30
0.0
  0
SPLINE
  5
10b
100
AcDbEntity
  8
0
 62
1
100
AcDbSpline
 70
8
 71
3
 72
8
 73
4
 74
0
 40
0
 40
0
 40
0
 40
0
 40
1
 40
1
 40
1
 40
1
 10
492.493086
 20
703.137410
 30
0.0
 10
493.896354
 20
703.947587
 30
0.0
 10
494.760803
 20
705.444857
 30
0.0
 10
494.760803
 20
707.065211
 30
0.0
  0
LWPOLYLINE
  5
10c
100
AcDbEntity
  8
0
 62
1
100
AcDbPolyline
 90
1
 70
1
 10
70.414343
 20
763.758086
 30
0.0
  0
SPLINE
  5
10d
100
AcDbEntity
  8
0
 62
1
100
AcDbSpline
 70
8
 71
3
 72
8
 73
4
 74
0
 40
0
 40
0
 40
0
 40
0
 40
1
 40
1
 40
1
 40
1
 10
494.760803
 20
820.450999
 30
0.0
 10
494.760803
 20
822.071353
 30
0.0
 10
493.896354
 20
823.568622
 30
0.0
 10
492.493086
 20
824.378799
 30
0.0
  0
SPLINE
  5
10e
100
AcDbEntity
  8
0
 62
1
100
AcDbSpline
 70
8
 71
3
 72
8
 73
4
 74
0
 40
0
 40
0
 40
0
 40
0
 40
1
 40
1
 40
1
 40
1
 10
492.493086
 20
824.378799
 30
0.0
 10
491.089818
 20
825.188977
 30
0.0
 10
489.360920
 20
825.188977
 30
0.0
 10
487.957652
 20
824.378799
 30
0.0
  0
SPLINE
  5
10f
100
AcDbEntity
  8
0
 62
1
100
AcDbSpline
 70
8
 71
3
 72
8
 73
4
 74
0
 40
0
 40
0
 40
0
 40
0
 40
1
 40
1
 40
1
 40
1
 10
487.957652
 20
824.378799
 30
0.0
 10
486.554384
 20
823.568622
 30
0.0
 10
485.689935
 20
822.071353
 30
0.0
 10
485.689935
 20
820.450999
 30
0.0
  0
SPLINE
  5
110
100
AcDbEntity
  8
0
 62
1
100
AcDbSpline
 70
8
 71
3
 72
8
 73
4
 74
0
 40
0
 40
0
 40
0
 40
0
 40
1
 40
1
 40
1
 40
1
 10
485.689935
 20
820.450999
 30
0.0
 10
485.689935
 20
818.830644
 30
0.0
 10
486.554384
 20
817.333375
 30
0.0
 10
487.957652
 20
816.523198
 30
0.0
  0
SPLINE
  5
111
100
AcDbEntity
  8
0
 62
1
100
AcDbSpline
 70
8
 71
3
 72
8
 73
4
 74
0
 40
0
 40
0
 40
0
 40
0
 40
1
 40
1
 40
1
 40
1
 10
487.957652
 20
816.523198
 30
0.0
 10
489.360920
 20
815.713021
 30
0.0
 10
491.089818
 20
815.713021
 30
0.0
 10
492.493086
 20
816.523198
 30
0.0
  0
SPLINE
  5
112
100
AcDbEntity
  8
0
 62
1
100
AcDbSpline
 70
8
 71
3
 72
8
 73
4
 74
0
 40
0
 40
0
 40
0
 40
0
 40
1
 40
1
 40
1
 40
1
 10
492.493086
 20
816.523198
 30
0.0
 10
493.896354
 20
817.333375
 30
0.0
 10
494.760803
 20
818.830644
 30
0.0
 10
494.760803
 20
820.450999
 30
0.0
  0
LWPOLYLINE
  5
113
100
AcDbEntity
  8
0
 62
1
100
AcDbPolyline
 90
1
 70
1
 10
494.760803
 20
707.065211
 30
0.0
  0
SPLINE
  5
114
100
AcDbEntity
  8
0
 62
1
100
AcDbSpline
 70
8
 71
3
 72
8
 73
4
 74
0
 40
0
 40
0
 40
0
 40
0
 40
1
 40
1
 40
1
 40
1
 10
862.981305
 20
763.758086
 30
0.0
 10
862.981305
 20
765.277170
 30
0.0
 10
862.170883
 20
766.680862
 30
0.0
 10
860.855318
 20
767.440404
 30
0.0
  0
SPLINE
  5
115
100
AcDbEntity
  8
0
 62
1
100
AcDbSpline
 70
8
 71
3
 72
8
 73
4
 74
0
 40
0
 40
0
 40
0
 40
0
 40
1
 40
1
 40
1
 40
1
 10
860.855318
 20
767.440404
 30
0.0
 10
859.539752
 20
768.199947
 30
0.0
 10
857.918908
 20
768.199947
 30
0.0
 10
856.603343
 20
767.440404
 30
0.0
  0
SPLINE
  5
116
100
AcDbEntity
  8
0
 62
1
100
AcDbSpline
 70
8
 71
3
 72
8
 73
4
 74
0
 40
0
 40
0
 40
0
 40
0
 40
1
 40
1
 40
1
 40
1
 10
856.603343
 20
767.440404
 30
0.0
 10
855.287777
 20
766.680862
 30
0.0
 10
854.477355
 20
765.277170
 30
0.0
 10
854.477355
 20
763.758086
 30
0.0
  0
SPLINE
  5
117
100
AcDbEntity
  8
0
 62
1
100
AcDbSpline
 70
8
 71
3
 72
8
 73
4
 74
0
 40
0
 40
0
 40
0
 40
0
 40
1
 40
1
 40
1
 40
1
 10
854.477355
 20
763.758086
 30
0.0
 10
854.477355
 20
762.239002
 30
0.0
 10
855.287777
 20
760.835310
 30
0.0
 10
856.603343
 20
760.075768
 30
0.0
  0
SPLINE
  5
118
100
AcDbEntity
  8
0
 62
1
100
AcDbSpline
 70
8
 71
3
 72
8
 73
4
 74
0
 40
0
 40
0
 40
0
 40
0
 40
1
 40
1
 40
1
 40
1
 10
856.603343
 20
760.075768
 30
0.0
 10
857.918908
 20
759.316226
 30
0.0
 10
859.539752
 20
759.316226
 30
0.0
 10
860.855318
 20
760.075768
 30
0.0
  0
SPLINE
  5
119
100
AcDbEntity
  8
0
 62
1
100
AcDbSpline
 70
8
 71
3
 72
8
 73
4
 74
0
 40
0
 40
0
 40
0
 40
0
 40
1
 40
1
 40
1
 40
1
 10
860.855318
 20
760.075768
 30
0.0
 10
862.170883
 20
760.835310
 30
0.0
 10
862.981305
 20
762.239002
 30
0.0
 10
862.981305
 20
763.758086
 30
0.0
  0
LWPOLYLINE
  5
11a
100
AcDbEntity
  8
0
 62
1
100
AcDbPolyline
 90
1
 70
1
 10
494.760803
 20
820.450999
 30
0.0
  0
LWPOLYLINE
  5
11b
100
AcDbEntity
  8
0
 62
1
100
AcDbPolyline
 90
1
 70
1
 10
862.981305
 20
763.758086
 30
0.0
  0
LWPOLYLINE
  5
11c
100
AcDbEntity
  8
0
 62
1
100
AcDbPolyline
 90
4
 70
1
 10
22.508798
 20
777.931286
 30
0.0
 10
31.508798
 20
777.931286
 30
0.0
 10
31.508798
 20
806.277776
 30
0.0
 10
22.508798
 20
806.277776
 30
0.0
  0
LWPOLYLINE
  5
11d
100
AcDbEntity
  8
0
 62
1
100
AcDbPolyline
 90
2
 70
0
 10
1142.193855
 20
834.624229
 30
0.0
 10
8.335597
 20
834.624229
 30
0.0
  0
LWPOLYLINE
  5
11e
100
AcDbEntity
  8
0
 62
1
100
AcDbPolyline
 90
2
 70
0
 10
1142.193855
 20
692.891936
 30
0.0
 10
1142.193855
 20
834.624229
 30
0.0
  0
LWPOLYLINE
  5
11f
100
AcDbEntity
  8
0
 62
1
100
AcDbPolyline
 90
2
 70
0
 10
8.335597
 20
692.891936
 30
0.0
 10
1142.193855
 20
692.891936
 30
0.0
  0
LWPOLYLINE
  5
120
100
AcDbEntity
  8
0
 62
1
100
AcDbPolyline
 90
2
 70
0
 10
8.335597
 20
834.624229
 30
0.0
 10
8.335597
 20
692.891936
 30
0.0
  0
SPLINE
  5
121
100
AcDbEntity
  8
0
 62
1
100
AcDbSpline
 70
8
 71
3
 72
8
 73
4
 74
0
 40
0
 40
0
 40
0
 40
0
 40
1
 40
1
 40
1
 40
1
 10
70.414350
 20
622.025794
 30
0.0
 10
70.415956
 20
623.951034
 30
0.0
 10
69.389776
 20
625.730717
 30
0.0
 10
67.722736
 20
626.693801
 30
0.0
  0
SPLINE
  5
122
100
AcDbEntity
  8
0
 62
1
100
AcDbSpline
 70
8
 71
3
 72
8
 73
4
 74
0
 40
0
 40
0
 40
0
 40
0
 40
1
 40
1
 40
1
 40
1
 10
67.722736
 20
626.693801
 30
0.0
 10
66.055696
 20
627.656886
 30
0.0
 10
64.001354
 20
627.656886
 30
0.0
 10
62.334314
 20
626.693801
 30
0.0
  0
SPLINE
  5
123
100
AcDbEntity
  8
0
 62
1
100
AcDbSpline
 70
8
 71
3
 72
8
 73
4
 74
0
 40
0
 40
0
 40
0
 40
0
 40
1
 40
1
 40
1
 40
1
 10
62.334314
 20
626.693801
 30
0.0
 10
60.667274
 20
625.730717
 30
0.0
 10
59.641094
 20
623.951034
 30
0.0
 10
59.642700
 20
622.025794
 30
0.0
  0
SPLINE
  5
124
100
AcDbEntity
  8
0
 62
1
100
AcDbSpline
 70
8
 71
3
 72
8
 73
4
 74
0
 40
0
 40
0
 40
0
 40
0
 40
1
 40
1
 40
1
 40
1
 10
59.642700
 20
622.025794
 30
0.0
 10
59.641094
 20
620.100553
 30
0.0
 10
60.667274
 20
618.320870
 30
0.0
 10
62.334314
 20
617.357786
 30
0.0
  0
SPLINE
  5
125
100
AcDbEntity
  8
0
 62
1
100
AcDbSpline
 70
8
 71
3
 72
8
 73
4
 74
0
 40
0
 40
0
 40
0
 40
0
 40
1
 40
1
 40
1
 40
1
 10
62.334314
 20
617.357786
 30
0.0
 10
64.001354
 20
616.394702
 30
0.0
 10
66.055696
 20
616.394702
 30
0.0
 10
67.722736
 20
617.357786
 30
0.0
  0
SPLINE
  5
126
100
AcDbEntity
  8
0
 62
1
100
AcDbSpline
 70
8
 71
3
 72
8
 73
4
 74
0
 40
0
 40
0
 40
0
 40
0
 40
1
 40
1
 40
1
 40
1
 10
67.722736
 20
617.357786
 30
0.0
 10
69.389776
 20
618.320870
 30
0.0
 10
70.415956
 20
620.100553
 30
0.0
 10
70.414350
 20
622.025794
 30
0.0
  0
LWPOLYLINE
  5
127
100
AcDbEntity
  8
0
 62
1
100
AcDbPolyline
 90
4
 70
1
 10
22.508798
 20
721.238411
 30
0.0
 10
31.508798
 20
721.238411
 30
0.0
 10
31.508798
 20
749.584886
 30
0.0
 10
22.508798
 20
749.584886
 30
0.0
  0
SPLINE
  5
128
100
AcDbEntity
  8
0
 62
1
100
AcDbSpline
 70
8
 71
3
 72
8
 73
4
 74
0
 40
0
 40
0
 40
0
 40
0
 40
1
 40
1
 40
1
 40
1
 10
494.760810
 20
565.332919
 30
0.0
 10
494.760810
 20
566.953273
 30
0.0
 10
493.896361
 20
568.450542
 30
0.0
 10
492.493093
 20
569.260719
 30
0.0
  0
SPLINE
  5
129
100
AcDbEntity
  8
0
 62
1
100
AcDbSpline
 70
8
 71
3
 72
8
 73
4
 74
0
 40
0
 40
0
 40
0
 40
0
 40
1
 40
1
 40
1
 40
1
 10
492.493093
 20
569.260719
 30
0.0
 10
491.089825
 20
570.070897
 30
0.0
 10
489.360927
 20
570.070897
 30
0.0
 10
487.957659
 20
569.260719
 30
0.0
  0
SPLINE
  5
12a
100
AcDbEntity
  8
0
 62
1
100
AcDbSpline
 70
8
 71
3
 72
8
 73
4
 74
0
 40
0
 40
0
 40
0
 40
0
 40
1
 40
1
 40
1
 40
1
 10
487.957659
 20
569.260719
 30
0.0
 10
486.554391
 20
568.450542
 30
0.0
 10
485.689943
 20
566.953273
 30
0.0
 10
485.689943
 20
565.332919
 30
0.0
  0
SPLINE
  5
12b
100
AcDbEntity
  8
0
 62
1
100
AcDbSpline
 70
8
 71
3
 72
8
 73
4
 74
0
 40
0
 40
0
 40
0
 40
0
 40
1
 40
1
 40
1
 40
1
 10
485.689943
 20
565.332919
 30
0.0
 10
485.689943
 20
563.712564
 30
0.0
 10
486.554391
 20
562.215295
 30
0.0
 10
487.957659
 20
561.405118
 30
0.0
  0
SPLINE
  5
12c
100
AcDbEntity
  8
0
 62
1
100
AcDbSpline
 70
8
 71
3
 72
8
 73
4
 74
0
 40
0
 40
0
 40
0
 40
0
 40
1
 40
1
 40
1
 40
1
 10
487.957659
 20
561.405118
 30
0.0
 10
489.360927
 20
560.594941
 30
0.0
 10
491.089825
 20
560.594941
 30
0.0
 10
492.493093
 20
561.405118
 30
0.0
  0
SPLINE
  5
12d
100
AcDbEntity
  8
0
 62
1
100
AcDbSpline
 70
8
 71
3
 72
8
 73
4
 74
0
 40
0
 40
0
 40
0
 40
0
 40
1
 40
1
 40
1
 40
1
 10
492.493093
 20
561.405118
 30
0.0
 10
493.896361
 20
562.215295
 30
0.0
 10
494.760810
 20
563.712564
 30
0.0
 10
494.760810
 20
565.332919
 30
0.0
  0
LWPOLYLINE
  5
12e
100
AcDbEntity
  8
0
 62
1
100
AcDbPolyline
 90
1
 70
1
 10
70.414350
 20
622.025794
 30
0.0
  0
SPLINE
  5
12f
100
AcDbEntity
  8
0
 62
1
100
AcDbSpline
 70
8
 71
3
 72
8
 73
4
 74
0
 40
0
 40
0
 40
0
 40
0
 40
1
 40
1
 40
1
 40
1
 10
494.760810
 20
678.718706
 30
0.0
 10
494.760810
 20
680.339061
 30
0.0
 10
493.896361
 20
681.836330
 30
0.0
 10
492.493093
 20
682.646507
 30
0.0
  0
SPLINE
  5
130
100
AcDbEntity
  8
0
 62
1
100
AcDbSpline
 70
8
 71
3
 72
8
 73
4
 74
0
 40
0
 40
0
 40
0
 40
0
 40
1
 40
1
 40
1
 40
1
 10
492.493093
 20
682.646507
 30
0.0
 10
491.089825
 20
683.456684
 30
0.0
 10
489.360927
 20
683.456684
 30
0.0
 10
487.957659
 20
682.646507
 30
0.0
  0
SPLINE
  5
131
100
AcDbEntity
  8
0
 62
1
100
AcDbSpline
 70
8
 71
3
 72
8
 73
4
 74
0
 40
0
 40
0
 40
0
 40
0
 40
1
 40
1
 40
1
 40
1
 10
487.957659
 20
682.646507
 30
0.0
 10
486.554391
 20
681.836330
 30
0.0
 10
485.689943
 20
680.339061
 30
0.0
 10
485.689943
 20
678.718706
 30
0.0
  0
SPLINE
  5
132
100
AcDbEntity
  8
0
 62
1
100
AcDbSpline
 70
8
 71
3
 72
8
 73
4
 74
0
 40
0
 40
0
 40
0
 40
0
 40
1
 40
1
 40
1
 40
1
 10
485.689943
 20
678.718706
 30
0.0
 10
485.689943
 20
677.098352
 30
0.0
 10
486.554391
 20
675.601082
 30
0.0
 10
487.957659
 20
674.790905
 30
0.0
  0
SPLINE
  5
133
100
AcDbEntity
  8
0
 62
1
100
AcDbSpline
 70
8
 71
3
 72
8
 73
4
 74
0
 40
0
 40
0
 40
0
 40
0
 40
1
 40
1
 40
1
 40
1
 10
487.957659
 20
674.790905
 30
0.0
 10
489.360927
 20
673.980728
 30
0.0
 10
491.089825
 20
673.980728
 30
0.0
 10
492.493093
 20
674.790905
 30
0.0
  0
SPLINE
  5
134
100
AcDbEntity
  8
0
 62
1
100
AcDbSpline
 70
8
 71
3
 72
8
 73
4
 74
0
 40
0
 40
0
 40
0
 40
0
 40
1
 40
1
 40
1
 40
1
 10
492.493093
 20
674.790905
 30
0.0
 10
493.896361
 20
675.601082
 30
0.0
 10
494.760810
 20
677.098352
 30
0.0
 10
494.760810
 20
678.718706
 30
0.0
  0
LWPOLYLINE
  5
135
100
AcDbEntity
  8
0
 62
1
100
AcDbPolyline
 90
1
 70
1
 10
494.760810
 20
565.332919
 30
0.0
  0
SPLINE
  5
136
100
AcDbEntity
  8
0
 62
1
100
AcDbSpline
 70
8
 71
3
 72
8
 73
4
 74
0
 40
0
 40
0
 40
0
 40
0
 40
1
 40
1
 40
1
 40
1
 10
862.981313
 20
622.025794
 30
0.0
 10
862.981313
 20
623.544878
 30
0.0
 10
862.170891
 20
624.948570
 30
0.0
 10
860.855325
 20
625.708112
 30
0.0
  0
SPLINE
  5
137
100
AcDbEntity
  8
0
 62
1
100
AcDbSpline
 70
8
 71
3
 72
8
 73
4
 74
0
 40
0
 40
0
 40
0
 40
0
 40
1
 40
1
 40
1
 40
1
 10
860.855325
 20
625.708112
 30
0.0
 10
859.539759
 20
626.467654
 30
0.0
 10
857.918916
 20
626.467654
 30
0.0
 10
856.603350
 20
625.708112
 30
0.0
  0
SPLINE
  5
138
100
AcDbEntity
  8
0
 62
1
100
AcDbSpline
 70
8
 71
3
 72
8
 73
4
 74
0
 40
0
 40
0
 40
0
 40
0
 40
1
 40
1
 40
1
 40
1
 10
856.603350
 20
625.708112
 30
0.0
 10
855.287784
 20
624.948570
 30
0.0
 10
854.477363
 20
623.544878
 30
0.0
 10
854.477363
 20
622.025794
 30
0.0
  0
SPLINE
  5
139
100
AcDbEntity
  8
0
 62
1
100
AcDbSpline
 70
8
 71
3
 72
8
 73
4
 74
0
 40
0
 40
0
 40
0
 40
0
 40
1
 40
1
 40
1
 40
1
 10
854.477363
 20
622.025794
 30
0.0
 10
854.477363
 20
620.506709
 30
0.0
 10
855.287784
 20
619.103017
 30
0.0
 10
856.603350
 20
618.343475
 30
0.0
  0
SPLINE
  5
13a
100
AcDbEntity
  8
0
 62
1
100
AcDbSpline
 70
8
 71
3
 72
8
 73
4
 74
0
 40
0
 40
0
 40
0
 40
0
 40
1
 40
1
 40
1
 40
1
 10
856.603350
 20
618.343475
 30
0.0
 10
857.918916
 20
617.583933
 30
0.0
 10
859.539759
 20
617.583933
 30
0.0
 10
860.855325
 20
618.343475
 30
0.0
  0
SPLINE
  5
13b
100
AcDbEntity
  8
0
 62
1
100
AcDbSpline
 70
8
 71
3
 72
8
 73
4
 74
0
 40
0
 40
0
 40
0
 40
0
 40
1
 40
1
 40
1
 40
1
 10
860.855325
 20
618.343475
 30
0.0
 10
862.170891
 20
619.103017
 30
0.0
 10
862.981313
 20
620.506709
 30
0.0
 10
862.981313
 20
622.025794
 30
0.0
  0
LWPOLYLINE
  5
13c
100
AcDbEntity
  8
0
 62
1
100
AcDbPolyline
 90
1
 70
1
 10
494.760810
 20
678.718706
 30
0.0
  0
LWPOLYLINE
  5
13d
100
AcDbEntity
  8
0
 62
1
100
AcDbPolyline
 90
1
 70
1
 10
862.981313
 20
622.025794
 30
0.0
  0
LWPOLYLINE
  5
13e
100
AcDbEntity
  8
0
 62
1
100
AcDbPolyline
 90
4
 70
1
 10
22.508805
 20
636.198994
 30
0.0
 10
31.508805
 20
636.198994
 30
0.0
 10
31.508805
 20
664.545484
 30
0.0
 10
22.508805
 20
664.545484
 30
0.0
  0
LWPOLYLINE
  5
13f
100
AcDbEntity
  8
0
 62
1
100
AcDbPolyline
 90
2
 70
0
 10
1142.193863
 20
692.891936
 30
0.0
 10
8.335605
 20
692.891936
 30
0.0
  0
LWPOLYLINE
  5
140
100
AcDbEntity
  8
0
 62
1
100
AcDbPolyline
 90
2
 70
0
 10
1142.193863
 20
551.159644
 30
0.0
 10
1142.193863
 20
692.891936
 30
0.0
  0
LWPOLYLINE
  5
141
100
AcDbEntity
  8
0
 62
1
100
AcDbPolyline
 90
2
 70
0
 10
8.335605
 20
551.159644
 30
0.0
 10
1142.193863
 20
551.159644
 30
0.0
  0
LWPOLYLINE
  5
142
100
AcDbEntity
  8
0
 62
1
100
AcDbPolyline
 90
2
 70
0
 10
8.335605
 20
692.891936
 30
0.0
 10
8.335605
 20
551.159644
 30
0.0
  0
LWPOLYLINE
  5
143
100
AcDbEntity
  8
0
 62
1
100
AcDbPolyline
 90
4
 70
1
 10
22.508805
 20
579.506119
 30
0.0
 10
31.508805
 20
579.506119
 30
0.0
 10
31.508805
 20
607.852594
 30
0.0
 10
22.508805
 20
607.852594
 30
0.0
  0
ENDSEC
  0
SECTION
  2
OBJECTS
  0
DICTIONARY
  5
C
330
0
100
AcDbDictionary
  3
ACAD_GROUP
350
D
  3
ACAD_MLINESTYLE
350
17
  0
DICTIONARY
  5
D
330
C
100
AcDbDictionary
  0
DICTIONARY
  5
1A
330
C
100
AcDbDictionary
  0
DICTIONARY
  5
17
330
C
100
AcDbDictionary
  3
STANDARD
350
18
  0
DICTIONARY
  5
19
330
C
100
AcDbDictionary
  0
ENDSEC
  0
EOF
